# xmcd
# Track frame offsets:
# 150
# 21165
# 44017
# 69697
# 90682
# 106620
# 119467
# 130747
# 142197
# 151260
# 162325
# 172847
# 184190
# 202065
# 223925
#
# Disc length: 3207 seconds
# Revision: 0
# Processed by: cddbd v1.5.1PL2 Copyright (c) Steve Scherf et al.
# Submitted via: VisiTrax 2.9.10.228 - For more info visit www.synapsa.com
#
DISCID=dc0c850f
DTITLE=AA. VV. - Oh Happy Days - Original Gospel and Spiritual
DYEAR=1996
DGENRE=Natalizio
TTITLE0=Gallagher, Eve - Amazing Grace
TTITLE1=Edwin Hawkins Singers, The - Oh Happy Day
TTITLE2=Peeble, Ann - I Can't Stand The Rain
TTITLE3=Ward, Robert - I Can't Stand The Rain
TTITLE4=Golden Gate Quartet - Swing Down Chariot
TTITLE5=Swan Silverstone, The - Oh Mary Don't You Weep
TTITLE6=Caravans - It's Jesus In Me
TTITLE7=Highway Q.C.'S - Nobody Knows
TTITLE8=Staples Singers, The - Going Away
TTITLE9=Swan Silverstone, The - What About You
TTITLE10=Caravans - No Coward Soldier
TTITLE11=Harmonizing Four, The - His Eye Is On The Sparrow
TTITLE12=Greater Harvest Choir, The - He Has A Way
TTITLE13=Sallie Martin Singers, The - God Is Moving
TTITLE14=Original Gospel Harmonettes, The - Step By Step
EXTD=
EXTT0=
EXTT1=
EXTT2=
EXTT3=
EXTT4=
EXTT5=
EXTT6=
EXTT7=
EXTT8=
EXTT9=
EXTT10=
EXTT11=
EXTT12=
EXTT13=
EXTT14=
PLAYORDER=
